<?xml version="1.0" standalone="no"?>
<!DOCTYPE svg PUBLIC "-//W3C//DTD SVG 20010904//EN"
 "http://www.w3.org/TR/2001/REC-SVG-20010904/DTD/svg10.dtd">
<svg version="1.0" xmlns="http://www.w3.org/2000/svg"
 width="920.000000pt" height="791.000000pt" viewBox="0 0 920.000000 791.000000"
 preserveAspectRatio="xMidYMid meet">

<g transform="translate(0.000000,791.000000) scale(0.100000,-0.100000)"
fill="#000000" stroke="none">
<path d="M2883 7877 c-48 -50 -98 -136 -123 -212 -25 -73 -35 -194 -20 -230 6
-13 9 4 9 54 1 123 52 269 124 356 47 57 49 55 72 -105 8 -58 22 -146 32 -197
l16 -92 -42 -46 c-38 -41 -42 -50 -37 -83 3 -20 15 -99 27 -175 l21 -138 -51
-54 c-30 -31 -54 -49 -56 -42 -8 25 -87 414 -92 452 -5 48 -13 59 -13 19 0
-61 88 -485 104 -501 3 -3 26 17 52 46 25 28 51 51 56 51 6 0 -12 -24 -40 -54
-46 -49 -51 -58 -46 -88 7 -41 39 -198 60 -298 23 -105 136 -459 155 -485 9
-13 79 -178 136 -319 24 -60 51 -121 60 -135 10 -14 33 -64 52 -111 28 -72 35
-104 42 -205 8 -124 43 -1147 40 -1200 -2 -47 -38 -243 -66 -356 l-25 -103 21
-42 c14 -26 20 -54 17 -73 -2 -17 0 -32 6 -35 6 -2 2 -4 -9 -4 -32 -1 -117
-21 -163 -38 l-44 -16 7 -87 7 -86 -56 -53 c-30 -28 -59 -52 -65 -52 -6 0 -26
-14 -45 -30 -34 -30 -44 -57 -60 -161 -4 -23 -20 -48 -46 -74 -35 -34 -43 -55
-22 -55 10 0 58 42 145 127 42 42 77 74 77 70 0 -4 -11 -30 -25 -59 -14 -28
-25 -53 -25 -55 0 -2 10 -1 23 2 26 7 40 -6 52 -45 7 -20 5 -23 -6 -14 -16 13
-120 2 -154 -16 -11 -6 -29 -31 -39 -57 -17 -41 -18 -62 -12 -232 6 -176 15
-254 31 -269 4 -4 10 -1 12 6 3 6 11 12 19 12 8 0 14 8 14 18 0 14 2 15 10 2
5 -8 12 -11 16 -7 4 4 18 0 31 -8 13 -9 29 -13 35 -9 6 4 17 -1 24 -10 11 -16
13 -14 19 13 3 16 4 142 2 280 -3 138 -1 251 3 251 10 0 29 -119 35 -222 4
-63 1 -105 -10 -149 -9 -34 -14 -64 -11 -66 6 -6 17 19 52 122 36 105 67 175
76 175 17 0 7 -48 -25 -125 -34 -80 -93 -248 -140 -400 -60 -194 -230 -932
-267 -1160 -59 -371 -98 -724 -83 -762 9 -22 -17 -15 -93 27 -40 22 -79 40
-86 40 -20 0 2 -15 90 -60 88 -45 84 -39 87 -135 3 -98 5 -105 23 -105 16 0
17 18 17 245 0 146 4 248 10 254 6 5 42 6 80 2 l70 -6 7 -65 c8 -85 38 -162
88 -228 22 -29 40 -62 40 -75 1 -39 98 217 146 383 80 278 94 348 119 595 44
430 97 732 137 775 20 21 53 27 63 11 3 -5 -9 -12 -27 -14 -26 -3 -23 -4 14
-5 35 -2 51 -8 65 -24 31 -39 136 -124 179 -146 61 -31 172 -60 262 -67 108
-10 188 12 220 61 12 19 27 34 32 34 5 0 7 6 4 13 -5 14 21 55 30 46 7 -7 -32
-122 -66 -199 -37 -82 -149 -304 -188 -370 -21 -36 -101 -190 -178 -343 -140
-278 -166 -347 -202 -527 -6 -30 -37 -117 -70 -194 -62 -144 -66 -156 -51
-156 5 0 19 29 31 65 12 36 25 67 30 70 5 3 24 -1 42 -9 34 -15 164 -54 251
-75 26 -6 78 -9 115 -6 37 2 103 7 146 10 61 4 88 10 115 28 20 13 56 36 81
52 25 15 135 119 245 230 188 190 341 325 368 325 7 0 26 -35 42 -77 16 -43
30 -71 32 -63 2 8 -19 71 -45 140 -149 380 -225 581 -244 640 -26 77 -77 292
-72 301 2 3 49 9 106 13 125 8 140 18 134 85 -2 25 -7 53 -10 61 -8 20 29 42
149 85 117 43 192 53 220 31 11 -8 14 -16 8 -16 -7 0 -13 -4 -13 -10 0 -5 7
-7 15 -4 8 3 19 2 26 -2 8 -4 -4 -14 -32 -25 -47 -19 -37 -24 22 -10 33 7 39
5 78 -30 23 -22 49 -42 56 -47 17 -9 50 -383 66 -732 23 -511 28 -589 49 -700
12 -63 24 -163 27 -222 3 -60 9 -108 14 -108 18 0 9 162 -16 283 -28 140 -45
295 -45 407 l0 78 53 39 c75 57 124 85 143 81 19 -3 34 -41 70 -178 38 -143
122 -388 153 -445 l26 -50 75 2 c41 1 122 11 180 23 172 35 248 61 425 145
188 90 259 135 433 276 191 154 464 483 488 587 3 15 19 50 34 78 38 69 88
213 106 304 16 79 12 136 -13 183 -29 57 -229 127 -588 207 -37 8 -55 6 -44
-4 3 -3 49 -15 104 -26 115 -25 148 -37 141 -48 -3 -5 14 -9 37 -9 46 -1 243
-64 294 -94 17 -11 34 -27 37 -36 6 -16 6 -16 -11 -1 -10 9 -40 26 -67 38
-134 57 -382 -5 -612 -153 -113 -72 -326 -259 -371 -325 -11 -16 -21 -21 -37
-16 -30 9 -135 87 -135 100 -1 20 172 178 265 241 158 108 308 176 504 230 84
23 84 23 28 18 -72 -6 -252 -66 -343 -113 -145 -75 -305 -190 -414 -296 l-70
-67 -43 28 c-109 70 -403 324 -534 462 -48 50 -51 56 -43 85 14 48 13 50 -48
86 -32 18 -68 40 -81 47 l-23 14 38 25 c21 14 71 58 111 97 39 39 72 67 72 62
0 -6 -18 -43 -40 -83 -22 -40 -40 -80 -40 -88 0 -7 -9 -19 -20 -26 -20 -13
-28 -38 -12 -38 12 0 42 36 92 113 24 37 48 67 54 67 17 0 75 -50 81 -70 4
-11 10 -18 14 -15 11 6 91 -63 91 -80 0 -10 7 -10 38 1 57 20 95 17 120 -9 12
-13 22 -26 22 -29 0 -3 -30 -8 -66 -11 -36 -2 -71 -10 -77 -17 -10 -10 -1 -11
38 -6 28 3 116 9 197 13 164 7 193 23 38 20 l-100 -1 -38 37 c-37 36 -41 37
-97 35 l-59 -3 -8 40 c-3 22 -12 101 -18 175 -23 263 -70 499 -144 720 -25 73
-44 135 -43 137 2 1 37 -46 77 -105 171 -249 336 -463 518 -674 67 -78 80 -88
109 -88 18 0 33 3 33 8 0 4 -23 34 -51 67 -55 63 -153 204 -147 210 2 2 39
-23 84 -55 126 -92 242 -159 315 -180 37 -11 73 -27 80 -36 21 -26 96 -54 142
-54 51 0 46 5 -78 83 -49 31 -101 67 -115 80 -14 13 -92 74 -175 136 -236 178
-496 444 -704 721 -208 276 -252 348 -449 730 -119 231 -174 335 -184 345 -11
12 4 -31 28 -76 8 -17 14 -33 11 -35 -2 -3 -21 29 -43 70 -21 42 -40 73 -42
71 -2 -2 2 -13 8 -25 6 -12 9 -24 7 -27 -3 -3 -15 13 -27 36 -22 44 -36 55
-25 20 5 -15 4 -19 -4 -15 -9 6 -17 76 -8 76 2 0 68 -11 148 -24 129 -22 170
-25 396 -23 139 1 253 3 253 4 0 7 -192 98 -280 133 -121 48 -106 48 -383 20
-54 -6 -106 -10 -116 -10 -17 0 -18 14 -20 208 l-2 207 52 -80 c66 -102 109
-156 119 -150 4 3 14 -3 21 -12 10 -12 10 -14 2 -9 -23 13 -14 -4 17 -34 33
-32 53 -41 27 -12 -8 9 -20 35 -26 57 -6 22 -25 60 -41 85 -58 84 -188 356
-215 450 -4 14 44 -77 107 -201 63 -124 145 -271 182 -327 66 -97 116 -156
116 -135 0 5 -9 18 -20 28 -14 13 -17 21 -9 25 8 6 8 14 -1 31 -11 21 -9 21
20 -6 l32 -30 -22 38 c-12 20 -17 37 -11 37 6 0 11 -3 11 -7 0 -5 19 -28 41
-53 45 -49 42 -43 -44 93 -28 42 -48 80 -45 83 3 3 30 -26 59 -64 30 -38 69
-82 88 -98 33 -28 34 -28 21 -4 -11 21 -7 20 25 -10 l38 -35 -23 40 c-13 22
-43 71 -67 110 -24 38 -43 74 -43 79 0 6 14 -11 30 -37 37 -59 247 -276 398
-411 234 -210 356 -315 361 -310 3 3 -3 10 -13 16 -11 6 -35 26 -53 44 -19 19
-69 63 -111 98 -43 36 -130 120 -192 188 -63 68 -124 128 -135 134 -11 6 -19
16 -17 23 1 7 -2 10 -6 7 -16 -10 -208 212 -291 337 -69 102 -244 457 -226
457 3 0 16 -21 29 -47 46 -88 27 -36 -34 90 -66 141 -102 225 -118 277 -6 19
-27 87 -47 150 -21 63 -44 137 -51 165 -58 203 -77 277 -85 325 -4 30 -10 65
-12 77 -7 40 11 14 54 -73 22 -47 43 -83 46 -80 10 10 3 339 -9 377 -6 22 -8
42 -5 46 4 3 26 -3 50 -14 23 -11 71 -32 107 -46 127 -49 140 -47 58 6 -54 35
-95 73 -87 82 3 2 29 -4 57 -15 67 -26 86 -25 45 0 -18 11 -33 22 -33 26 0 3
36 2 80 -2 54 -4 80 -3 80 4 0 10 -16 15 -95 28 -51 8 -213 91 -287 147 -31
23 -122 101 -203 172 -219 194 -255 223 -310 241 -27 9 -61 23 -75 30 -98 53
-245 68 -377 40 -166 -36 -386 -233 -463 -416 -8 -19 -30 -64 -48 -98 -19 -37
-31 -71 -27 -81 3 -10 -8 -67 -25 -127 -16 -59 -30 -120 -30 -136 0 -16 13
-57 29 -93 64 -141 40 -417 -70 -807 -49 -172 -45 -172 -107 2 -95 271 -132
379 -150 440 -11 36 -47 151 -80 255 -55 172 -111 374 -194 695 -62 243 -66
263 -58 286 5 13 1 63 -10 130 -10 60 -20 129 -23 154 -11 94 -30 186 -42 202
-11 16 -14 15 -42 -15z m1123 -748 c-13 -53 -32 -121 -43 -150 -19 -50 -30
-101 -52 -224 -7 -43 -9 -32 -10 71 -1 143 18 220 80 323 22 36 39 69 39 75 0
5 2 7 4 5 3 -2 -6 -48 -18 -100z m754 46 c7 -8 20 -15 30 -15 18 0 134 -84
160 -115 17 -22 12 -19 -49 22 -47 32 -62 29 -25 -4 70 -64 77 -78 63 -117 -7
-20 -15 -36 -19 -36 -3 0 -19 20 -37 43 -17 23 -66 80 -109 125 -75 81 -88
106 -44 82 28 -15 41 -3 16 16 -11 8 -15 14 -9 14 6 0 16 -7 23 -15z m-839
-58 c-19 -53 -63 -238 -80 -332 l-9 -50 -1 45 c-2 96 25 234 62 313 20 42 38
77 41 77 3 0 -3 -24 -13 -53z m-87 -5 c-26 -61 -27 -68 -5 -43 25 28 28 9 5
-34 -9 -16 -23 -43 -32 -59 l-15 -29 -13 33 c-19 44 -19 45 23 116 39 67 63
78 37 16z m848 5 c27 -22 163 -179 200 -229 36 -51 1 -29 -40 25 -22 28 -77
90 -121 136 -45 46 -81 86 -81 88 0 9 18 1 42 -20z m-634 -122 l-1 -40 -7 40
c-5 30 -8 33 -9 13 -1 -34 -11 -58 -22 -58 -11 0 -5 125 7 154 6 16 10 11 21
-25 7 -24 12 -62 11 -84z m637 -90 c12 -22 30 -62 39 -90 18 -60 36 -165 26
-165 -3 0 -16 21 -27 48 -91 204 -102 225 -178 347 -12 19 5 7 49 -35 37 -36
78 -83 91 -105z m-1616 105 c0 -9 -4 -8 -9 5 -5 11 -9 27 -9 35 0 9 4 8 9 -5
5 -11 9 -27 9 -35z m1398 -209 c24 -57 42 -109 40 -114 -3 -10 -61 81 -94 148
-11 22 -26 65 -33 95 -6 30 -14 64 -16 75 -7 33 56 -93 103 -204z m-191 72 c3
3 1 22 -5 43 -17 62 -6 49 32 -38 37 -85 64 -175 54 -184 -3 -3 -16 20 -30 50
-24 52 -44 78 -30 39 3 -10 3 -16 0 -13 -13 12 -67 173 -66 198 1 19 7 7 21
-37 10 -34 22 -61 24 -58z m302 -13 c57 -91 66 -116 27 -80 -14 13 -25 28 -25
34 0 6 -11 27 -23 46 -58 86 -62 93 -47 88 8 -2 39 -42 68 -88z m-1471 -2 c-3
-8 -6 -5 -6 6 -1 11 2 17 5 13 3 -3 4 -12 1 -19z m37 -128 l6 -35 -14 35 c-8
19 -15 44 -15 55 l0 20 8 -20 c5 -11 11 -36 15 -55z m1591 -150 c-3 -5 -31
-14 -62 -20 -51 -11 -58 -10 -70 6 -14 20 -73 195 -73 218 0 8 47 -33 105 -91
58 -57 103 -108 100 -113z m-698 153 c-3 -10 -5 -2 -5 17 0 19 2 27 5 18 2
-10 2 -26 0 -35z m-52 -202 c5 -33 4 -42 -7 -39 -10 4 -13 36 -14 134 l-2 129
8 -90 c5 -49 12 -110 15 -134z m465 165 c17 -30 51 -78 77 -106 25 -28 44 -52
42 -53 -7 -5 -60 -27 -64 -27 -2 0 -11 15 -19 33 -18 39 -76 207 -71 207 2 0
18 -24 35 -54z m465 -42 c15 -38 22 -64 17 -59 -8 9 -52 120 -52 133 0 14 11
-10 35 -74z m-843 -102 c-24 -6 -29 11 -24 93 l5 80 16 -85 c14 -71 14 -86 3
-88z m92 -20 c-1 -2 -13 0 -27 3 -21 6 -26 14 -31 58 -18 137 -18 136 22 37
21 -52 38 -96 36 -98z m896 132 c7 -19 9 -38 6 -41 -6 -6 -36 58 -36 77 0 22
19 -1 30 -36z m-1891 -29 c0 -5 -4 -3 -9 5 -5 8 -9 22 -9 30 0 16 17 -16 18
-35z m1666 -89 c5 -31 4 -46 -4 -46 -6 0 -11 8 -11 19 0 10 -2 40 -5 67 -7 62
10 29 20 -40z m-1658 52 c-3 -8 -6 -5 -6 6 -1 11 2 17 5 13 3 -3 4 -12 1 -19z
m1722 -113 c60 -185 59 -176 10 -230 -23 -25 -44 -44 -45 -42 -2 2 2 26 10 53
23 83 28 110 18 99 -6 -5 -17 -38 -25 -71 -9 -34 -34 -100 -57 -147 -34 -72
-53 -97 -118 -157 -73 -69 -243 -190 -265 -190 -14 0 -159 79 -224 122 -57 38
-108 92 -167 179 -36 54 -54 125 -56 217 0 21 1 22 24 7 15 -10 28 -33 36 -63
11 -47 61 -164 66 -159 2 2 -7 30 -20 62 -28 70 -44 199 -26 210 6 4 19 4 28
0 16 -6 16 -7 0 -16 -13 -7 -17 -20 -14 -48 4 -52 11 -59 48 -56 18 2 43 3 55
4 31 1 50 25 58 71 8 48 17 44 50 -21 14 -27 27 -49 30 -49 6 0 -10 40 -31 81
-8 17 -13 37 -10 45 3 8 -1 17 -8 20 -8 3 -16 14 -19 25 -8 32 19 22 42 -15
43 -68 49 -56 15 30 -40 102 -44 131 -11 88 33 -46 114 -134 122 -134 4 0 -3
16 -14 36 -12 20 -20 39 -17 42 3 2 31 -20 63 -50 143 -135 184 -166 150 -114
-9 13 -13 33 -10 45 6 24 8 25 34 11 23 -13 25 -30 3 -30 -12 0 -14 -7 -9 -32
4 -18 9 -35 12 -38 3 -3 34 -5 69 -6 63 -1 133 20 134 39 0 5 9 22 20 37 11
16 27 44 35 63 12 29 12 37 -1 63 -18 34 -46 160 -33 147 5 -5 26 -62 48 -128z
m-669 36 c0 -21 -16 -2 -24 29 -7 24 -6 24 8 6 9 -11 16 -27 16 -35z m-1033
17 c-3 -8 -6 -5 -6 6 -1 11 2 17 5 13 3 -3 4 -12 1 -19z m1561 -8 c12 -33 12
-34 -42 -49 -37 -10 -41 -8 -69 19 -33 32 -32 34 37 50 55 14 64 11 74 -20z
m-684 0 c17 -6 26 -17 26 -30 0 -15 -4 -19 -12 -13 -13 8 -18 9 -38 12 -9 1
-15 41 -6 41 3 0 16 -4 30 -10z m-727 -450 c31 -96 64 -195 73 -220 47 -125
76 -240 62 -240 -12 0 -18 16 -118 310 -41 124 -98 290 -125 370 -27 79 -48
149 -46 154 2 6 21 -40 42 -102 21 -62 40 -110 42 -108 2 2 -11 50 -30 107
-19 57 -37 120 -41 139 -6 35 34 -82 141 -410z m823 430 c11 -7 7 -10 -17 -10
-18 0 -33 5 -33 10 0 13 30 13 50 0z m424 1 c4 -5 -6 -14 -21 -19 -27 -10 -27
-10 -4 -11 20 -1 21 -3 11 -16 -19 -22 0 -18 26 6 12 12 27 18 33 14 17 -10
13 -23 -9 -30 -11 -4 -33 -17 -49 -31 l-29 -24 -21 34 c-29 46 -26 61 12 74
43 13 45 14 51 3z m-344 -31 c0 -5 -2 -10 -4 -10 -3 0 -8 5 -11 10 -3 6 -1 10
4 10 6 0 11 -4 11 -10z m-260 -10 c0 -5 -5 -10 -11 -10 -5 0 -7 5 -4 10 3 6 8
10 11 10 2 0 4 -4 4 -10z m200 6 c0 -2 3 -11 6 -20 5 -13 2 -14 -25 -5 -43 15
-48 29 -12 29 17 0 31 -2 31 -4z m634 -42 c23 -9 20 -52 -7 -98 -19 -35 -43
-51 -41 -28 4 57 18 132 24 132 5 0 15 -3 24 -6z m-821 -21 c3 -5 8 -24 11
-43 l7 -35 -20 35 c-23 40 -25 50 -12 50 6 0 12 -3 14 -7z m998 -40 c-9 -16
-10 -14 -11 12 0 21 3 26 11 18 8 -8 8 -16 0 -30z m-856 -63 c3 -5 2 -10 -4
-10 -5 0 -13 5 -16 10 -3 6 -2 10 4 10 5 0 13 -4 16 -10z m575 0 c0 -5 -6 -10
-12 -10 -9 0 -8 -4 2 -10 12 -8 11 -10 -7 -10 -36 0 -27 35 10 39 4 1 7 -3 7
-9z m-841 -47 c33 -52 24 -71 -14 -32 -24 25 -42 79 -26 79 5 0 23 -21 40 -47z
m284 20 c-7 -2 -19 -2 -25 0 -7 3 -2 5 12 5 14 0 19 -2 13 -5z m-342 -315 c-6
-10 -11 -33 -11 -51 0 -105 -146 -557 -179 -557 -21 0 -16 29 16 99 115 251
161 441 164 675 l2 91 9 -120 c6 -82 6 -125 -1 -137z m1013 -47 c3 -29 3 -52
1 -49 -11 10 -36 172 -29 187 7 16 16 -25 28 -138z m-764 45 c0 -39 -6 -31
-14 19 -5 29 -4 36 3 25 6 -8 11 -28 11 -44z m-243 -43 c-3 -10 -5 -4 -5 12 0
17 2 24 5 18 2 -7 2 -21 0 -30z m1208 -287 c31 -104 72 -224 90 -267 24 -58
29 -79 19 -79 -19 0 -34 33 -97 221 -49 145 -99 341 -96 381 1 16 12 -18 84
-256z m-346 89 c-12 -97 -43 -196 -69 -220 -26 -23 -25 -9 1 35 38 62 52 127
59 280 0 2 4 0 9 -5 6 -6 6 -40 0 -90z m-387 53 c1 -18 0 -63 -1 -101 -2 -39
2 -73 8 -81 9 -10 3 -26 -25 -70 -32 -48 -39 -54 -53 -44 -21 17 -31 31 -31
43 1 6 5 2 11 -8 16 -27 25 -14 54 76 28 86 31 187 6 195 -15 5 -4 22 15 22 9
0 15 -12 16 -32z m341 -45 c-18 -99 -33 -156 -39 -150 -3 2 1 54 8 116 10 92
15 111 29 111 15 0 16 -6 2 -77z m-399 26 c13 -67 6 -126 -20 -173 -14 -25
-27 -46 -29 -46 -2 0 3 20 10 44 8 24 11 54 8 67 -4 15 -3 20 5 15 14 -9 14
-11 2 54 -5 29 -7 56 -4 61 10 17 22 9 28 -22z m328 -100 c-2 -66 -9 -137 -16
-157 -12 -33 -17 -37 -47 -37 -29 0 -37 6 -57 42 -22 41 -75 204 -67 211 2 2
17 -3 33 -12 28 -15 32 -14 75 15 25 16 51 36 57 44 7 8 15 15 19 15 3 0 4
-54 3 -121z m-393 38 c11 -57 11 -66 -9 -111 -27 -63 -33 -56 -13 16 14 50 14
60 0 101 -14 42 -13 57 3 57 3 0 12 -28 19 -63z m571 -67 c16 -67 34 -128 41
-136 6 -8 9 -17 6 -20 -11 -11 -36 57 -62 165 -26 106 -29 129 -19 119 3 -3
18 -61 34 -128z m445 -122 c43 -111 62 -184 29 -108 -29 66 -94 243 -93 254 1
15 10 -7 64 -146z m-1435 42 c-6 -23 -13 -40 -15 -38 -2 2 1 23 7 46 6 24 13
41 15 38 2 -2 -1 -23 -7 -46z m399 -63 c59 -124 112 -275 120 -343 4 -35 6
-64 4 -64 -9 0 -53 116 -98 255 -26 83 -53 167 -61 188 -23 63 -1 40 35 -36z
m592 27 c7 -8 9 -17 6 -21 -8 -7 -57 24 -57 36 0 13 37 2 51 -15z m-1026 -80
c-9 -25 -19 -43 -22 -40 -3 3 2 21 11 40 9 19 16 42 17 53 0 11 3 13 6 5 3 -8
-3 -34 -12 -58z m853 27 c-15 -5 -21 7 -13 26 7 17 8 17 15 -2 4 -11 3 -22 -2
-24z m-638 -18 c67 -265 255 -602 514 -923 35 -44 46 -68 26 -55 -5 3 -50 59
-99 124 -49 66 -97 127 -106 138 -9 10 -52 79 -94 152 -43 74 -82 136 -88 138
-5 2 -8 -13 -6 -36 2 -32 -1 -42 -23 -56 -32 -21 -46 -10 -74 53 -26 58 -26
60 12 99 18 18 27 33 21 33 -20 0 -73 -51 -73 -71 0 -17 49 -135 136 -327 13
-29 24 -57 24 -62 0 -6 4 -10 8 -10 9 0 58 -287 50 -295 -3 -3 -10 28 -17 67
-22 126 -41 190 -96 314 -46 103 -109 260 -128 316 -4 11 11 33 44 66 46 46
61 72 41 72 -5 0 -30 -20 -56 -45 -27 -25 -52 -45 -58 -45 -8 0 -64 45 -159
130 -15 14 -46 40 -69 59 -22 18 -40 38 -40 43 0 5 39 27 88 50 48 22 91 43
96 46 6 3 6 -3 1 -14 -23 -56 -21 -59 70 -113 48 -28 92 -51 97 -51 18 0 -14
31 -54 51 -48 24 -50 34 -3 15 51 -22 43 0 -10 25 -25 12 -47 24 -49 28 -3 4
8 28 24 54 16 25 24 44 17 41 -20 -8 -67 -76 -67 -98 0 -15 -3 -17 -12 -8 -9
9 -9 18 0 36 13 28 80 106 92 106 4 0 13 -21 20 -47z m814 -18 c19 -25 54 -37
40 -12 -14 22 62 -39 173 -141 l83 -74 -37 -29 c-19 -16 -41 -29 -47 -29 -11
1 13 22 44 40 8 5 12 12 8 16 -4 4 -26 -5 -49 -20 l-41 -28 -50 34 c-29 19
-58 49 -70 73 -12 22 -47 82 -79 133 -33 51 -59 95 -59 97 0 11 67 -37 84 -60z
m-64 -56 c0 -3 -9 -18 -20 -32 l-20 -25 -37 19 c-50 25 -76 24 -111 -6 -35
-30 -52 -31 -81 -7 -20 16 -20 19 -5 47 27 53 55 75 92 75 l34 0 -22 -18 -23
-19 31 -21 c41 -30 75 -28 93 4 12 23 11 27 -4 38 -9 7 -14 16 -10 20 7 6 83
-62 83 -75z m-286 55 c13 -5 13 -9 -1 -40 -9 -19 -22 -34 -28 -34 -7 0 -31 21
-55 47 l-44 46 56 -6 c31 -4 63 -10 72 -13z m-119 -52 c-3 -3 -11 0 -18 7 -9
10 -8 11 6 5 10 -3 15 -9 12 -12z m823 -86 l92 -31 0 -45 c0 -44 -16 -162 -25
-189 -7 -19 -33 18 -74 104 -24 51 -56 93 -115 153 l-81 83 55 -22 c30 -12 97
-36 148 -53z m-713 26 c28 -24 49 -52 39 -52 -15 1 -88 70 -73 70 8 -1 23 -8
34 -18z m200 4 c37 -16 49 -34 64 -92 37 -148 50 -187 72 -210 l24 -26 -45 7
c-55 9 -65 14 -120 60 -54 45 -69 35 -15 -12 71 -61 79 -64 179 -70 89 -6 97
-8 127 -37 17 -17 43 -48 56 -69 13 -20 42 -51 65 -67 22 -16 50 -39 62 -50
11 -11 47 -43 78 -71 32 -28 56 -55 53 -59 -3 -4 -20 -11 -39 -14 -30 -6 -51
2 -137 46 -56 29 -109 58 -118 63 -9 6 -39 23 -66 39 -58 34 -218 161 -256
202 -33 36 -63 117 -79 214 -17 102 -16 117 11 140 29 23 40 24 84 6z m-955
-52 c14 -9 63 -56 110 -103 65 -67 95 -107 128 -172 43 -87 52 -129 28 -129
-9 0 -18 -22 -26 -62 -14 -73 -43 -106 -143 -163 -74 -42 -188 -135 -230 -187
-31 -39 -31 -63 0 -36 18 15 76 38 97 38 19 0 3 -197 -21 -256 -31 -79 -57
-133 -64 -134 -8 0 -19 54 -19 96 0 18 -4 35 -9 38 -10 6 -21 -65 -21 -132 0
-25 -5 -72 -12 -103 -10 -50 -9 -76 10 -188 16 -93 19 -138 12 -156 -11 -29
-8 -28 -65 -14 -27 7 -47 18 -50 29 -3 9 5 75 19 146 57 303 70 409 67 544
l-3 115 34 48 c18 26 70 98 114 160 45 61 92 130 104 152 12 22 33 54 46 72
13 17 24 35 24 39 0 3 -31 41 -68 83 -104 117 -130 151 -126 169 15 76 27 122
33 122 3 0 18 -7 31 -16z m1627 -379 c5 -228 3 -268 -8 -257 -11 10 -15 65
-17 248 -2 144 -7 232 -13 229 -5 -4 -9 -22 -9 -41 0 -29 -53 -144 -66 -144
-5 0 12 42 30 79 8 15 21 79 27 140 l12 112 19 -48 c17 -41 20 -86 25 -318z
m-797 213 c48 -107 65 -132 131 -203 122 -128 199 -218 199 -232 0 -6 -15 -15
-34 -18 -30 -6 -51 3 -163 65 -109 61 -132 77 -141 104 -7 18 -12 35 -12 39 0
3 30 -3 67 -14 38 -10 72 -19 78 -18 16 1 -127 49 -146 49 -24 0 -64 57 -84
122 -18 55 -18 57 3 110 12 29 25 68 28 86 4 17 9 32 13 32 3 0 31 -55 61
-122z m367 -49 c17 -25 60 -72 95 -104 79 -73 168 -174 168 -192 0 -25 -120
84 -169 154 -49 69 -51 71 -102 78 -55 8 -91 35 -94 71 -1 10 -5 48 -10 83
l-7 65 44 -55 c24 -30 58 -75 75 -100z m-1340 99 c-3 -8 -6 -5 -6 6 -1 11 2
17 5 13 3 -3 4 -12 1 -19z m1393 2 c14 -11 29 -20 33 -20 4 0 43 -16 86 -36
74 -34 79 -38 85 -72 3 -21 5 -68 4 -107 -1 -38 -3 -54 -5 -35 -1 19 -6 63 -9
98 l-6 63 -101 50 c-56 27 -108 49 -114 49 -7 0 -13 7 -13 15 0 20 10 19 40
-5z m-1406 -82 c-1 -35 1 -105 5 -157 6 -89 8 -95 35 -115 16 -12 41 -30 55
-42 l25 -21 -17 -45 c-10 -25 -32 -67 -49 -94 -30 -45 -33 -47 -35 -24 -2 14
-13 81 -24 148 -13 81 -19 159 -18 225 3 88 14 187 23 187 1 0 1 -28 0 -62z
m1443 22 c6 0 38 -14 72 -31 58 -30 60 -32 66 -77 3 -26 8 -62 11 -79 6 -40
-1 -41 -55 -5 -54 36 -124 138 -146 212 l-7 25 24 -22 c13 -13 29 -23 35 -23z
m-1489 -187 c-2 -54 -9 -98 -16 -105 -9 -9 -12 7 -12 76 0 90 21 198 29 146 2
-14 1 -67 -1 -117z m917 74 c4 -17 16 -44 27 -59 11 -16 17 -32 14 -37 -3 -5
1 -11 9 -15 14 -5 55 -63 55 -78 0 -24 -26 1 -66 63 -60 94 -78 134 -70 154 8
23 23 10 31 -28z m777 -109 c-7 -7 -12 -8 -12 -2 0 14 12 26 19 19 2 -3 -1
-11 -7 -17z m-1228 -285 c-6 -238 -12 -294 -55 -490 l-31 -142 21 -44 c35 -72
24 -85 -13 -14 -18 36 -41 73 -50 82 -22 22 -20 47 8 103 13 26 41 94 61 152
37 100 39 111 40 235 1 125 14 325 21 325 2 0 1 -93 -2 -207z m601 137 c7 -24
7 -24 -9 -5 -8 11 -16 27 -16 35 0 20 16 1 25 -30z m-501 -50 c2 -30 8 -64 12
-74 6 -16 4 -18 -10 -13 -10 4 -20 7 -22 7 -2 0 -4 37 -4 83 1 91 15 89 24 -3z
m1808 -67 c51 -21 122 -52 158 -70 l65 -32 -242 0 c-222 -1 -252 1 -370 25
-70 14 -137 31 -148 37 -11 6 -26 10 -34 8 -8 -1 -30 1 -50 5 l-36 7 35 8 c88
20 318 44 447 47 74 2 91 -2 175 -35z m-666 -123 c-9 -34 -16 -69 -16 -79 0
-10 -12 -46 -26 -81 -18 -46 -24 -72 -19 -99 4 -26 0 -50 -14 -81 -11 -25 -21
-37 -21 -27 0 10 7 32 16 49 12 23 13 37 6 53 -7 16 -5 35 9 74 10 29 31 103
46 163 15 60 29 105 31 99 2 -5 -4 -38 -12 -71z m-491 -35 c76 -109 147 -251
172 -345 27 -100 25 -338 -5 -446 -12 -45 -31 -101 -41 -125 -19 -42 -20 -43
-20 -14 0 17 3 59 8 95 5 36 6 83 2 105 -7 37 -9 32 -29 -74 -16 -84 -31 -131
-56 -175 -53 -94 -70 -111 -45 -46 52 134 69 229 76 415 9 247 -15 400 -97
608 -21 53 -36 97 -35 97 2 0 33 -43 70 -95z m-448 23 c-3 -8 -6 -5 -6 6 -1
11 2 17 5 13 3 -3 4 -12 1 -19z m363 -90 c25 -34 55 -78 67 -99 l23 -37 -56
-26 c-31 -15 -59 -25 -62 -22 -5 6 38 45 50 46 4 0 12 9 18 19 8 17 1 34 -45
100 -64 95 -60 108 5 19z m330 16 c-30 -20 -69 -49 -87 -66 -20 -20 -38 -28
-48 -24 -34 13 -8 41 75 83 102 52 135 56 60 7z m364 -11 c-2 -16 -11 -100
-19 -188 -9 -88 -23 -197 -31 -242 -18 -98 -10 -136 41 -215 19 -29 35 -57 35
-63 0 -20 -43 -155 -50 -155 -3 0 -29 11 -57 24 -48 23 -51 28 -55 67 -3 33
-1 38 7 24 5 -10 22 -32 38 -49 l27 -31 25 28 c44 50 43 67 -19 190 l-56 112
9 60 c6 33 15 121 20 195 10 119 15 143 43 203 34 72 46 83 42 40z m-749 -95
c-10 -46 -19 -116 -21 -157 -5 -96 -13 -104 -16 -15 -2 94 0 118 18 202 12 52
20 70 27 63 7 -7 5 -35 -8 -93z m-476 -62 c-9 -8 -10 -7 -5 7 3 10 7 31 8 45
1 22 2 21 5 -7 3 -19 -1 -38 -8 -45z m92 -23 c-25 -99 -83 -235 -198 -463 -65
-129 -126 -246 -136 -260 -21 -30 -23 -8 -2 24 10 15 15 42 13 79 -2 48 3 66
42 141 42 82 44 87 33 128 l-11 42 80 100 c44 56 91 114 104 130 12 16 35 52
51 82 15 29 29 51 32 49 2 -2 -2 -26 -8 -52z m1207 -150 c68 -143 162 -358
162 -370 0 -4 -30 48 -66 117 -62 119 -143 257 -169 290 -13 15 -9 90 4 90 4
0 35 -57 69 -127z m-1438 46 c0 -11 7 -36 15 -55 14 -34 14 -38 -8 -64 -25
-32 -56 -54 -64 -46 -6 6 12 113 28 164 11 34 29 35 29 1z m1147 -161 c-2 -18
-4 -6 -4 27 0 33 2 48 4 33 2 -15 2 -42 0 -60z m-17 -98 l-11 -25 6 25 c2 14
5 34 6 45 2 19 2 19 6 0 2 -12 -1 -32 -7 -45z m45 -104 c-16 -153 -16 -156 5
-198 24 -49 23 -48 8 -48 -13 0 -40 -25 -99 -90 l-31 -35 23 35 c13 19 38 53
56 76 37 46 40 54 19 54 -8 0 -22 10 -30 22 -12 17 -13 25 -3 37 10 12 9 14
-10 9 -21 -6 -23 -3 -22 30 1 37 1 37 8 7 l7 -30 8 35 c4 19 18 69 31 110 13
41 27 92 31 113 15 85 14 20 -1 -127z m-1025 98 c0 -25 49 -175 70 -214 6 -11
8 -20 6 -20 -8 0 -43 71 -71 145 -26 70 -32 115 -15 115 6 0 10 -12 10 -26z
m450 -244 c0 -25 -5 -52 -10 -60 -7 -10 -9 8 -9 59 1 46 4 68 10 60 5 -8 9
-34 9 -59z m1094 -171 c62 -187 104 -517 86 -669 -5 -41 -9 -81 -10 -88 0 -8
-8 -12 -17 -10 -15 3 -17 19 -14 153 5 268 -31 548 -89 698 -16 43 -30 81 -30
85 2 20 44 -76 74 -169z m-1483 99 c-10 -25 -38 -78 -60 -118 -38 -66 -41 -78
-35 -119 9 -62 -5 -46 -21 24 l-13 56 46 58 c26 32 58 81 72 109 30 61 39 54
11 -10z m904 26 c18 -28 18 -29 -27 -55 -20 -11 -165 18 -151 31 6 7 132 46
154 49 4 1 14 -11 24 -25z m-1547 -46 c-3 -30 -6 -33 -33 -30 -38 4 -45 12
-34 40 6 16 16 22 39 22 29 0 31 -2 28 -32z m289 -55 c-3 -10 -5 -2 -5 17 0
19 2 27 5 18 2 -10 2 -26 0 -35z m762 -14 c1 -13 -3 -49 -10 -79 -7 -30 -12
-72 -10 -92 2 -23 -2 -38 -8 -38 -16 0 -13 68 4 115 21 58 19 102 -5 117 -11
7 -20 17 -20 22 0 19 45 -23 49 -45z m604 -71 c9 -21 21 -38 26 -38 6 0 11
-13 11 -30 0 -24 -4 -30 -22 -30 -20 0 -26 10 -44 76 -18 64 -19 83 -10 113
l11 36 6 -45 c3 -25 13 -62 22 -82z m241 102 c5 -5 -8 -5 -30 1 -21 6 -41 14
-44 16 -9 10 64 -7 74 -17z m-1944 -92 c1 -224 55 -743 82 -775 7 -9 2 -30
-16 -69 -14 -31 -26 -58 -26 -59 0 -1 8 -5 19 -8 10 -2 24 -18 32 -36 15 -32
29 -41 29 -17 0 8 -12 29 -26 46 l-27 31 29 30 c15 16 30 29 33 29 4 0 11 -12
18 -27 53 -126 53 -133 -9 -133 -78 0 -130 22 -155 66 -13 21 -23 51 -23 66 0
15 -9 67 -21 115 -75 323 -115 583 -119 785 0 11 81 33 134 36 l46 3 0 -83z
m95 62 c16 -14 26 -211 26 -516 0 -169 4 -248 13 -265 14 -28 0 -95 -21 -103
-10 -4 -12 1 -7 20 4 15 1 31 -8 42 -25 28 -69 405 -75 641 l-6 204 33 -7 c18
-3 39 -11 45 -16z m1948 -267 c-1 -147 -5 -278 -8 -290 -3 -13 -12 -23 -20
-23 -11 0 -15 12 -15 49 0 28 -5 53 -11 57 -6 4 -9 20 -6 39 3 18 1 37 -4 42
-5 5 -2 31 6 63 24 89 36 170 30 190 -3 10 -15 22 -26 25 -16 6 -20 14 -18 44
2 20 -1 42 -5 50 -15 24 11 36 38 17 35 -22 43 -20 20 5 -19 22 -19 22 2 11
20 -10 20 -17 17 -279z m-1870 261 c8 -8 -3 -34 -14 -34 -5 0 -9 6 -9 14 0 8
-6 17 -12 19 -7 3 -4 6 8 6 11 1 23 -2 27 -5z m-359 -193 c4 -57 14 -142 22
-190 29 -165 85 -436 96 -464 6 -16 11 -45 10 -65 -1 -20 5 -47 14 -60 19 -29
10 -43 -11 -16 -22 27 -35 61 -35 92 0 15 -26 126 -56 247 -67 262 -81 342
-90 498 -7 108 -6 119 12 132 18 13 19 11 25 -28 4 -23 9 -89 13 -146z m442
144 c30 -46 15 -255 -36 -490 l-19 -90 4 85 c3 47 5 183 5 303 0 185 2 217 15
217 8 0 22 -11 31 -25z m1338 11 c-3 -8 -1 -47 5 -87 7 -39 10 -74 7 -76 -3
-3 -7 12 -10 33 -4 22 -10 55 -14 76 -5 20 -5 43 0 52 11 20 19 21 12 2z
m-1253 -51 c7 -14 6 -30 -4 -53 -13 -31 -13 -29 -13 41 -1 39 1 63 3 52 2 -11
9 -29 14 -40z m1609 46 c0 -6 -4 -13 -10 -16 -5 -3 -10 1 -10 9 0 9 5 16 10
16 6 0 10 -4 10 -9z m-42 -18 c2 -8 -6 -13 -22 -13 -28 0 -43 15 -24 23 20 8
41 3 46 -10z m-1719 3 c-12 -10 -59 -15 -59 -6 0 5 14 10 32 10 17 0 29 -2 27
-4z m1669 -31 c51 -14 102 -30 113 -35 24 -13 24 -48 4 -150 -9 -41 -18 -90
-22 -108 -7 -40 -29 -56 -108 -76 -65 -17 -235 -22 -235 -6 0 5 4 31 9 57 6
26 13 69 16 95 l6 47 92 21 c88 20 226 84 227 104 1 11 -142 55 -180 56 -14 0
-32 5 -40 10 -27 17 19 12 118 -15z m-1668 -42 c0 -5 -14 -9 -30 -10 -18 -1
-28 2 -25 7 7 12 55 14 55 3z m-6 -38 c-7 -17 -20 -20 -28 -6 -7 10 3 21 20
21 8 0 11 -6 8 -15z m146 -55 c0 -30 -5 -42 -21 -50 -11 -7 -22 -10 -23 -8 -1
2 -1 24 2 51 3 38 8 47 23 47 15 0 19 -7 19 -40z m-590 -5 c-7 -9 -15 -13 -18
-10 -3 2 1 11 8 20 7 9 15 13 18 10 3 -2 -1 -11 -8 -20z m450 15 c0 -6 -11
-10 -25 -10 -14 0 -25 4 -25 8 0 4 11 9 25 10 14 1 25 -3 25 -8z m420 -36 c25
-9 47 -18 49 -20 1 -1 -5 -37 -15 -79 -16 -68 -20 -76 -39 -71 -11 3 -41 10
-67 17 -27 7 -48 18 -48 24 0 16 30 117 42 138 5 10 15 16 21 14 7 -3 32 -13
57 -23z m1060 12 c0 -2 -11 -6 -25 -8 -13 -3 -22 -1 -19 3 5 9 44 13 44 5z
m-1490 -21 c0 -8 -4 -15 -10 -15 -5 0 -10 7 -10 15 0 8 5 15 10 15 6 0 10 -7
10 -15z m-422 -39 c2 -17 -1 -26 -6 -22 -6 3 -34 -2 -62 -11 -45 -14 -59 -25
-94 -75 -23 -31 -44 -58 -48 -58 -14 0 20 88 46 123 20 25 44 42 84 56 69 23
76 22 80 -13z m978 20 c6 -17 -24 -155 -38 -173 -5 -6 -15 -10 -23 -7 -7 3
-16 0 -20 -5 -7 -12 67 -50 98 -51 11 0 17 -8 17 -24 l0 -23 -61 14 c-78 18
-88 10 -17 -12 l54 -18 0 -48 -1 -49 -24 41 c-14 23 -40 48 -62 60 -36 18 -39
22 -39 64 0 24 5 47 10 50 6 3 10 13 10 22 0 9 9 52 21 95 19 70 24 78 45 78
14 0 27 -6 30 -14z m728 -2 c13 -5 16 -24 15 -108 0 -55 -3 -119 -7 -141 -7
-35 -12 -42 -47 -53 -64 -22 -293 -2 -302 25 -3 9 24 12 104 10 135 -3 162 4
169 42 4 18 16 33 32 41 l27 12 -23 19 c-16 12 -23 28 -22 46 1 16 2 33 1 38
-1 6 -37 11 -85 11 -111 2 -178 12 -173 27 2 8 49 14 137 19 73 4 135 10 138
13 7 7 17 6 36 -1z m-1274 -24 c0 -5 -11 -10 -25 -10 -14 0 -25 5 -25 10 0 6
11 10 25 10 14 0 25 -4 25 -10z m140 -12 c0 -7 -11 -67 -25 -133 -30 -141 -34
-294 -10 -319 8 -8 15 -23 15 -33 0 -13 -5 -10 -20 12 -30 48 -30 179 0 347
14 76 28 138 33 138 4 0 7 -6 7 -12z m582 -7 c57 -11 124 -22 151 -26 l47 -6
0 -47 c0 -26 -3 -63 -6 -83 l-6 -36 -47 8 c-25 4 -107 15 -181 24 -74 10 -138
21 -142 24 -7 6 16 132 27 151 9 14 41 12 157 -9z m-724 -35 c-2 -27 -23 -24
-31 5 -4 14 0 19 14 19 14 0 18 -6 17 -24z m1356 -7 c8 -42 7 -90 -4 -114 -6
-13 -8 0 -5 40 l4 60 -10 -62 c-15 -86 -32 -82 -24 5 8 78 13 102 24 102 5 0
11 -14 15 -31z m-364 -16 c0 -21 -3 -62 -6 -90 -6 -44 -10 -53 -27 -53 -18 0
-19 4 -12 78 4 42 8 83 8 90 0 6 9 12 19 12 14 0 18 -8 18 -37z m156 27 l64 0
0 -35 0 -35 -59 0 c-32 0 -79 3 -103 6 -40 6 -45 9 -41 28 10 47 12 49 44 42
18 -3 60 -6 95 -6z m231 -57 c-2 -16 -4 -5 -4 22 0 28 2 40 4 28 2 -13 2 -35
0 -50z m40 15 c-3 -8 -6 -5 -6 6 -1 11 2 17 5 13 3 -3 4 -12 1 -19z m-1417 -8
c0 -5 -11 -10 -25 -10 -14 0 -25 5 -25 10 0 6 11 10 25 10 14 0 25 -4 25 -10z
m-20 -50 c0 -11 -4 -20 -10 -20 -5 0 -10 9 -10 20 0 11 5 20 10 20 6 0 10 -9
10 -20z m394 0 c40 -17 46 -23 46 -50 0 -16 -1 -30 -3 -30 -1 0 -25 23 -52 50
-27 28 -46 50 -43 50 4 0 27 -9 52 -20z m856 11 c0 -5 -9 -13 -20 -16 -27 -9
-199 5 -206 16 -3 5 47 9 110 9 65 0 116 -4 116 -9z m520 -26 c10 -12 10 -19
2 -27 -14 -14 -17 -11 -26 20 -8 25 5 29 24 7z m-553 -9 c8 -6 -12 -46 -25
-51 -19 -7 -172 -8 -179 -1 -3 2 -2 18 2 34 l6 29 97 -5 c53 -2 98 -5 99 -6z
m-1202 -25 c-8 -13 -45 -15 -45 -2 0 5 10 11 23 13 27 5 31 3 22 -11z m205
-16 c-10 -19 -21 -25 -47 -25 -18 0 -33 5 -33 11 0 7 12 9 31 7 25 -4 33 0 42
19 5 13 13 21 15 18 3 -3 -1 -16 -8 -30z m1460 10 c10 -26 24 -32 35 -15 3 6
11 10 18 10 17 0 -26 -29 -43 -30 -9 0 -21 14 -27 30 -6 17 -7 30 -2 30 5 0
14 -11 19 -25z m45 15 c-3 -5 -11 -10 -16 -10 -6 0 -7 5 -4 10 3 6 11 10 16
10 6 0 7 -4 4 -10z m-141 -22 c10 -13 12 -26 7 -31 -13 -13 -28 -1 -33 28 -6
31 6 32 26 3z m46 13 c0 -6 -4 -13 -10 -16 -5 -3 -10 1 -10 9 0 9 5 16 10 16
6 0 10 -4 10 -9z m-140 -10 c0 -5 3 -17 7 -27 9 -23 -13 -10 -27 17 -9 15 -7
19 5 19 8 0 15 -4 15 -9z m40 -7 c0 -8 -5 -12 -10 -9 -6 4 -8 11 -5 16 9 14
15 11 15 -7z m269 -1 c-1 -5 -1 -22 0 -39 1 -26 6 -32 30 -37 30 -6 44 -35 35
-72 -4 -17 5 -25 53 -47 68 -31 209 -115 306 -181 38 -26 72 -47 76 -47 4 0
12 -5 19 -12 9 -9 -12 -34 -91 -110 -56 -54 -108 -96 -114 -93 -7 2 -13 -1
-13 -8 0 -16 -220 -133 -243 -130 -10 2 -30 17 -45 35 -64 74 -268 368 -316
453 -9 17 -31 53 -48 80 -28 47 -30 54 -22 105 l9 54 100 1 c88 0 102 -2 117
-20 10 -11 17 -30 18 -42 0 -21 -5 -23 -52 -23 -92 0 -112 -14 -29 -20 l74 -5
26 -60 c22 -51 51 -85 199 -230 94 -93 178 -172 185 -174 18 -6 -175 200 -267
284 -61 57 -83 85 -101 130 l-24 57 67 -6 c62 -6 65 -5 42 8 -14 9 -42 15 -63
16 -32 0 -37 3 -33 18 4 10 -1 27 -9 38 -18 24 -19 34 -2 34 7 0 32 11 57 25
48 26 61 30 59 18z m-1037 -24 c51 -6 110 -8 132 -4 32 5 38 3 29 -6 -15 -15
-226 -24 -273 -12 -21 6 -36 16 -38 28 -4 15 1 17 28 12 17 -4 72 -12 122 -18z
m898 12 c0 -5 -9 -11 -21 -14 -16 -4 -18 -3 -8 9 13 16 29 19 29 5z m-1673
-23 c-3 -8 -6 -5 -6 6 -1 11 2 17 5 13 3 -3 4 -12 1 -19z m17 -66 c-4 -9 -6
-20 -6 -24 1 -5 -2 -8 -8 -8 -5 0 -10 4 -10 9 0 6 5 13 10 16 16 10 12 25 -7
25 -16 1 -16 2 2 16 18 13 20 13 23 -1 2 -9 0 -24 -4 -33z m1403 -19 c-2 -16
-4 -5 -4 22 0 28 2 40 4 28 2 -13 2 -35 0 -50z m-667 1 c58 -23 120 -45 138
-49 33 -7 63 -46 61 -82 0 -16 -1 -15 -9 2 -11 30 -29 42 -80 55 -56 14 -139
46 -205 78 -60 29 -59 28 -51 41 7 12 5 12 146 -45z m-239 -26 c64 -48 68 -53
50 -62 -12 -5 -22 -7 -24 -5 -1 3 -27 30 -57 62 -30 31 -51 57 -47 57 5 0 40
-24 78 -52z m723 5 c6 -19 2 -23 -31 -32 -21 -5 -67 -12 -103 -16 -36 -4 -80
-11 -99 -15 -23 -6 -39 -6 -48 2 -26 21 -12 28 63 28 42 0 106 5 141 12 l64
12 -6 30 c-6 34 7 19 19 -21z m-1197 -10 c-3 -10 -5 -4 -5 12 0 17 2 24 5 18
2 -7 2 -21 0 -30z m-27 -13 c0 -5 -8 -10 -17 -10 -15 0 -16 2 -3 10 19 12 20
12 20 0z m1486 -147 c78 -128 189 -288 277 -401 32 -40 56 -76 53 -79 -8 -8
-21 4 -51 49 -16 24 -48 66 -70 93 -43 51 -129 177 -159 230 -9 17 -25 44 -36
60 -41 65 -100 175 -100 187 0 7 9 -5 21 -26 11 -22 41 -72 65 -113z m-1232
112 c8 -22 -70 -61 -90 -44 -22 18 -17 29 19 44 42 19 64 19 71 0z m-254 -5
c0 -5 -4 -10 -10 -10 -5 0 -10 5 -10 10 0 6 5 10 10 10 6 0 10 -4 10 -10z m60
-57 c0 -24 -15 -13 -33 25 l-19 37 26 -24 c14 -14 26 -30 26 -38z m602 27 c70
-33 65 -40 -9 -11 -29 11 -56 15 -68 11 -11 -4 -23 -6 -26 -4 -12 7 -34 -27
-46 -70 l-11 -41 -1 35 c0 46 19 80 55 96 39 17 34 18 106 -16z m-655 -16 c-3
-3 -12 -4 -19 -1 -8 3 -5 6 6 6 11 1 17 -2 13 -5z m263 -14 c-8 -5 -19 -10
-25 -10 -5 0 -3 5 5 10 8 5 20 10 25 10 6 0 3 -5 -5 -10z m-245 -20 c3 -5 1
-10 -4 -10 -6 0 -11 5 -11 10 0 6 2 10 4 10 3 0 8 -4 11 -10z m758 -16 c29 -9
56 -21 62 -26 11 -9 -92 20 -115 33 -23 13 -4 11 53 -7z m-638 -55 c4 -18 2
-36 -6 -45 -10 -12 -15 -9 -29 23 -15 34 -15 39 -1 50 21 15 28 9 36 -28z
m-70 -1 c23 -27 25 -37 19 -72 -3 -23 -8 -43 -10 -45 -9 -9 -16 10 -16 42 0
22 -9 44 -24 62 -22 26 -24 45 -4 45 4 0 20 -14 35 -32z m-60 -27 c-3 -6 -11
-8 -17 -5 -6 4 -5 9 3 15 16 10 23 4 14 -10z m608 -27 c102 -22 105 -23 87
-35 -8 -5 -38 -16 -67 -25 -29 -8 -107 -40 -175 -70 -139 -62 -145 -57 -13 10
114 59 60 53 -88 -9 -15 -6 -17 -4 -12 18 5 18 2 28 -12 35 -23 13 -21 15 68
56 84 40 111 42 212 20z m487 14 c0 -2 -92 -97 -205 -212 l-204 -209 -41 12
c-47 14 -50 22 -12 47 32 21 217 171 283 228 94 84 179 147 179 134z m-1070
-29 c0 -6 -4 -7 -10 -4 -5 3 -10 11 -10 16 0 6 5 7 10 4 6 -3 10 -11 10 -16z
m223 -32 c42 -20 77 -40 77 -45 0 -5 -8 -33 -17 -63 l-17 -54 -6 40 c-4 34 -8
40 -30 40 -19 0 -25 6 -25 23 0 13 -19 39 -50 67 -54 49 -51 48 68 -8z m887
10 c0 -2 -10 -12 -22 -23 l-23 -19 19 23 c18 21 26 27 26 19z m294 -225 c11
-102 19 -140 36 -165 l21 -32 -7 35 c-3 19 -10 37 -15 38 -5 2 -6 8 -3 13 3 6
1 15 -4 22 -6 8 -5 26 3 52 7 22 14 33 14 25 1 -8 4 -34 6 -57 2 -24 10 -56
19 -73 8 -17 12 -38 9 -47 -5 -12 -3 -14 6 -8 10 5 11 2 7 -13 -5 -15 -1 -24
14 -32 24 -13 24 -16 1 50 -10 30 -21 69 -23 85 -3 17 -3 24 -1 17 3 -7 8 -10
11 -8 4 2 7 -8 8 -22 1 -38 43 -129 61 -136 11 -4 13 -2 9 9 -17 43 -14 45 8
5 13 -25 21 -48 18 -51 -4 -3 -36 -14 -72 -23 -71 -19 -222 -89 -284 -131
l-39 -26 6 68 c12 146 38 321 58 386 11 38 39 110 62 160 l42 92 7 -50 c4 -27
14 -110 22 -183z m-1394 208 c0 -5 -4 -10 -10 -10 -5 0 -10 5 -10 10 0 6 5 10
10 10 6 0 10 -4 10 -10z m1397 -32 c-3 -7 -5 -2 -5 12 0 14 2 19 5 13 2 -7 2
-19 0 -25z m803 -79 c-57 -55 -126 -112 -154 -128 -139 -79 -229 -122 -243
-117 -9 4 41 34 134 81 107 53 158 84 181 111 39 45 175 164 181 158 3 -3 -42
-50 -99 -105z m-2124 68 c56 -58 96 -140 59 -120 -21 12 -95 112 -95 129 0 20
12 17 36 -9z m2283 -39 c15 -64 15 -65 -18 -34 -26 25 -28 30 -18 62 13 41 20
35 36 -28z m-63 -3 c-10 -24 -21 -47 -26 -50 -4 -2 2 20 13 50 11 31 22 53 25
50 3 -2 -3 -25 -12 -50z m-1316 42 c0 -2 -10 -12 -22 -23 l-23 -19 19 23 c18
21 26 27 26 19z m-1185 -85 c41 -105 42 -110 19 -92 -19 16 -74 130 -74 155 0
39 28 7 55 -63z m215 74 c0 -3 -4 -8 -10 -11 -5 -3 -10 -1 -10 4 0 6 5 11 10
11 6 0 10 -2 10 -4z m1020 1 c0 -2 -10 -12 -22 -23 l-23 -19 19 23 c18 21 26
27 26 19z m-1135 -46 c3 -9 21 -41 40 -71 19 -30 35 -58 35 -64 0 -13 -98 1
-114 16 -15 16 -49 90 -59 129 l-7 26 50 -10 c31 -6 51 -16 55 -26z m135 19
c0 -5 -4 -10 -10 -10 -5 0 -10 5 -10 10 0 6 5 10 10 10 6 0 10 -4 10 -10z
m725 -26 c-56 -50 -148 -114 -115 -81 27 28 142 116 150 116 3 0 -13 -16 -35
-35z m-756 -12 c10 -20 31 -48 46 -62 15 -14 31 -33 36 -42 9 -16 4 -18 -46
-18 -38 0 -54 4 -49 11 3 6 -8 30 -25 54 -17 23 -35 54 -40 67 -9 23 -7 25 25
26 30 1 36 -3 53 -36z m1423 13 c3 -13 1 -22 -3 -19 -9 5 -13 44 -5 44 2 0 6
-11 8 -25z m-1215 -22 c-3 -10 -5 -4 -5 12 0 17 2 24 5 18 2 -7 2 -21 0 -30z
m-140 10 c5 -15 -28 -26 -41 -13 -8 8 -7 14 4 20 17 11 32 8 37 -7z m913 13
c0 -2 -8 -10 -17 -17 -16 -13 -17 -12 -4 4 13 16 21 21 21 13z m-126 -96 c-84
-86 -118 -115 -78 -67 40 49 149 157 158 157 5 0 -31 -40 -80 -90z m-769 40
c3 -5 1 -10 -4 -10 -6 0 -11 5 -11 10 0 6 2 10 4 10 3 0 8 -4 11 -10z m107
-77 c-4 -63 -3 -67 12 -48 8 11 16 39 16 63 0 30 5 44 16 49 29 11 32 -18 9
-84 -29 -82 -41 -95 -80 -85 -23 7 -33 4 -45 -10 -14 -18 -50 -17 -50 1 0 10
52 31 76 31 27 0 34 17 34 84 0 43 5 66 15 66 0 0 -1 -30 -3 -67z m-77 47 c-3
-5 -11 -10 -16 -10 -6 0 -7 5 -4 10 3 6 11 10 16 10 6 0 7 -4 4 -10z m-245
-137 c0 -7 -10 -13 -22 -13 -12 0 -40 -11 -63 -25 l-42 -24 -27 28 -27 29 32
23 c84 61 80 60 117 26 17 -17 32 -37 32 -44z m72 -6 c4 -7 4 -15 -1 -20 -11
-11 -34 0 -50 25 -12 20 -11 20 15 14 16 -4 32 -13 36 -19z m773 -7 c-10 -11
-23 -20 -28 -20 -6 0 0 11 13 25 27 29 42 25 15 -5z m-687 -6 c-9 -9 -21 -13
-28 -9 -8 5 -4 11 12 19 29 16 37 10 16 -10z m712 -5 c-7 -11 -14 -18 -17 -15
-3 3 0 12 7 21 18 21 23 19 10 -6z m-1014 -81 c29 -77 61 -138 78 -150 8 -5 8
-10 1 -17 -7 -7 -21 8 -43 48 -40 72 -85 191 -73 191 5 0 22 -33 37 -72z
m2419 3 c-3 -6 -11 -11 -17 -11 -6 0 -6 6 2 15 14 17 26 13 15 -4z m-1753 -13
c-7 -7 -12 -8 -12 -2 0 14 12 26 19 19 2 -3 -1 -11 -7 -17z m60 -47 c24 -10
50 -27 58 -37 14 -18 14 -18 -6 -1 -11 9 -29 17 -38 17 -15 0 -17 -5 -11 -27
5 -23 4 -25 -9 -14 -9 8 -16 10 -16 7 0 -22 64 -109 73 -100 2 3 19 -14 37
-38 l32 -43 -36 40 c-20 22 -36 35 -36 30 0 -6 3 -16 8 -21 4 -6 -7 5 -24 23
-29 30 -94 150 -94 173 0 14 12 13 62 -9z m1363 -41 c4 0 0 9 -10 20 -10 11
-15 20 -11 20 4 0 16 -9 28 -20 14 -13 17 -20 8 -20 -9 0 -8 -6 6 -22 14 -15
15 -19 3 -12 -25 14 -79 62 -79 70 0 4 10 -2 23 -14 13 -12 27 -22 32 -22z
m-2015 20 c0 -5 -2 -10 -4 -10 -3 0 -8 5 -11 10 -3 6 -1 10 4 10 6 0 11 -4 11
-10z m75 0 c3 -5 1 -10 -4 -10 -6 0 -11 5 -11 10 0 6 2 10 4 10 3 0 8 -4 11
-10z m1861 -17 c-7 -7 -26 7 -26 19 0 6 6 6 15 -2 9 -7 13 -15 11 -17z m303 8
c-50 -68 -93 -120 -97 -117 -7 8 21 52 61 94 43 44 59 55 36 23z m-1406 -90
c-2 -3 -20 12 -41 34 l-37 39 41 -35 c22 -19 39 -36 37 -38z m-82 32 c13 -16
12 -17 -3 -4 -17 13 -22 21 -14 21 2 0 10 -8 17 -17z m3430 -45 c10 -13 18
-33 19 -46 1 -86 -86 -346 -153 -456 -72 -119 -237 -328 -336 -426 -213 -210
-552 -403 -874 -496 -130 -37 -135 -38 -121 -24 6 6 50 22 99 36 192 55 409
156 607 281 194 123 333 258 511 498 133 178 223 384 234 536 5 74 5 76 -22
97 -27 21 -27 22 -5 22 12 0 30 -10 41 -22z m-3104 -66 c56 -31 100 -59 98
-62 -2 -4 -35 -8 -72 -9 -80 -2 -131 -10 -138 -22 -3 -4 13 -22 35 -40 22 -18
40 -37 40 -42 0 -10 -175 -5 -186 5 -7 7 65 207 81 224 13 15 21 12 142 -54z
m1063 9 c0 -5 -5 -11 -11 -13 -6 -2 12 -40 40 -86 l51 -82 -49 -65 -49 -64
-16 24 c-21 32 -34 185 -16 185 8 0 10 -8 6 -25 -8 -33 9 -65 35 -65 15 0 19
-5 16 -15 -4 -8 -2 -17 3 -20 10 -6 18 23 12 48 -3 9 -9 17 -16 16 -28 -3 -36
3 -36 31 0 19 -7 34 -20 42 -29 18 -27 71 3 86 28 13 47 15 47 3z m96 -158
c-4 -4 -11 -1 -16 7 -16 25 -11 35 7 17 9 -9 13 -20 9 -24z m94 -120 c28 -43
50 -85 50 -93 -1 -18 -88 -115 -97 -107 -3 4 10 26 29 49 19 24 38 49 42 55 4
8 -12 43 -40 85 -54 85 -52 83 -59 76 -3 -3 8 -23 24 -45 31 -43 61 -97 61
-110 0 -13 -85 -103 -97 -103 -16 0 -103 121 -103 143 0 11 21 44 46 73 65 77
82 74 144 -23z m280 -363 c0 -6 -28 -10 -67 -10 -38 0 -97 -5 -132 -10 -70
-12 -249 -66 -269 -83 -15 -12 -30 -1 -16 12 22 21 268 87 344 93 101 8 140 8
140 -2z m91 -205 c32 -12 52 -76 57 -177 9 -196 -71 -467 -150 -509 -14 -7
-22 -1 -42 33 -42 74 -103 251 -157 458 -11 41 -26 92 -34 113 -8 20 -15 44
-15 51 0 14 59 31 140 40 46 5 181 0 201 -9z m-1171 -115 c0 -5 -7 -10 -15
-10 -9 0 -32 -8 -53 -19 -69 -34 -87 -32 -27 3 60 36 95 45 95 26z m-1990
-136 c47 -9 97 -13 112 -10 29 6 39 -8 14 -17 -28 -11 -262 28 -273 46 -4 7 6
8 28 3 19 -4 72 -14 119 -22z m1694 -55 c-32 -36 -114 -102 -120 -96 -5 4 125
117 135 117 2 0 -4 -10 -15 -21z m-1560 -96 c10 -32 26 -73 37 -91 23 -40 25
-60 5 -43 -8 7 -28 50 -45 97 -34 94 -34 94 -23 94 5 0 16 -26 26 -57z m1359
-85 c-54 -72 -139 -171 -163 -192 -29 -24 -40 -26 -116 -26 -95 0 -252 21
-364 50 -87 21 -133 38 -108 39 9 1 29 -4 45 -10 45 -17 261 -58 350 -65 44
-4 101 -4 126 0 42 7 51 14 136 111 51 58 94 105 98 105 3 0 1 -6 -4 -12z
m-706 -198 c14 -11 35 -20 45 -20 37 0 75 -33 102 -87 14 -29 26 -55 26 -57 0
-11 -246 62 -278 82 -10 7 -9 18 7 55 17 39 25 47 47 47 14 0 37 -9 51 -20z"/>
<path d="M4416 6113 c10 -40 14 -41 14 -5 0 18 -5 32 -10 32 -6 0 -8 -11 -4
-27z"/>
<path d="M4368 5983 c6 -2 18 -2 25 0 6 3 1 5 -13 5 -14 0 -19 -2 -12 -5z"/>
<path d="M4485 5980 c3 -5 10 -10 16 -10 5 0 9 5 9 10 0 6 -7 10 -16 10 -8 0
-12 -4 -9 -10z"/>
<path d="M4670 6500 c0 -5 5 -10 10 -10 6 0 10 5 10 10 0 6 -4 10 -10 10 -5 0
-10 -4 -10 -10z"/>
<path d="M5093 3098 c-37 -56 -42 -102 -13 -118 65 -35 138 69 100 141 -19 34
-56 24 -87 -23z m77 -8 c0 -5 -4 -10 -10 -10 -5 0 -10 5 -10 10 0 6 5 10 10
10 6 0 10 -4 10 -10z m-7 -45 c-3 -9 -8 -14 -10 -11 -3 3 -2 9 2 15 9 16 15
13 8 -4z"/>
<path d="M5632 1478 c-18 -23 -32 -45 -32 -50 0 -17 72 -108 86 -108 8 0 27
19 44 41 22 31 27 45 20 58 -23 39 -66 95 -75 98 -6 2 -25 -16 -43 -39z m48 2
c0 -21 -33 -60 -50 -60 -15 0 -12 10 13 47 25 38 37 42 37 13z m31 -76 c-11
-16 -17 -18 -19 -8 -4 17 -14 18 -30 2 -6 -6 -14 -9 -18 -6 -3 4 9 20 27 36
30 27 35 28 45 14 9 -13 8 -21 -5 -38z m-16 -44 c-3 -5 -13 -10 -21 -10 -8 0
-14 5 -14 10 0 6 9 10 21 10 11 0 17 -4 14 -10z"/>
<path d="M2812 7608 c-7 -7 -12 -21 -12 -32 0 -17 2 -18 10 -6 7 11 10 7 10
-18 0 -20 -4 -31 -10 -27 -5 3 -10 -1 -10 -9 0 -25 18 -27 34 -4 20 28 22 108
3 108 -7 0 -18 -5 -25 -12z m25 -55 c-3 -10 -5 -2 -5 17 0 19 2 27 5 18 2 -10
2 -26 0 -35z"/>
<path d="M5522 5333 c36 -81 118 -217 125 -209 2 2 -11 28 -30 57 -19 30 -46
78 -61 107 -14 28 -29 52 -32 52 -3 0 -4 -3 -2 -7z"/>
<path d="M5687 5049 c24 -42 219 -299 245 -324 30 -29 -73 119 -140 200 -32
39 -70 89 -85 113 -31 48 -47 57 -20 11z"/>
<path d="M5840 4445 c8 -11 50 -58 94 -104 82 -86 80 -89 -7 -17 -26 21 -51
36 -54 33 -3 -4 15 -31 41 -61 28 -33 42 -57 36 -61 -6 -4 -45 20 -86 52 -42
32 -88 65 -102 73 -15 9 -40 24 -55 34 -54 37 -44 10 56 -149 105 -165 385
-474 610 -674 177 -156 186 -165 112 -111 -38 28 -97 69 -130 92 -216 149
-524 435 -607 563 -25 39 -78 130 -118 203 -40 73 -75 131 -77 128 -12 -12
140 -271 382 -651 21 -33 51 -77 67 -97 16 -21 27 -42 23 -48 -7 -11 228 -283
324 -374 34 -32 60 -61 57 -64 -3 -3 -14 3 -24 14 -10 10 -37 37 -61 59 l-44
40 34 -47 c19 -26 54 -75 79 -109 85 -117 288 -354 406 -474 145 -148 247
-237 393 -345 61 -46 109 -85 107 -87 -2 -3 -25 7 -50 21 -54 30 -56 31 -56
11 0 -16 30 -35 54 -35 9 0 44 -13 78 -30 64 -31 78 -35 78 -22 0 12 -59 41
-62 31 -2 -5 -12 -2 -23 6 -20 17 -20 17 0 11 25 -7 25 -8 -108 93 -53 40 -97
75 -97 77 0 7 136 -64 208 -108 120 -73 265 -134 427 -178 58 -15 233 -40 280
-39 39 1 39 2 -10 9 -61 9 -199 50 -192 56 3 3 22 1 44 -5 21 -6 79 -13 128
-16 74 -4 83 -3 50 5 -65 17 -66 30 -2 30 l57 0 0 70 0 70 -44 0 c-43 0 -43 0
-56 48 -62 228 -319 593 -641 907 -169 165 -190 181 -499 365 -282 170 -370
229 -540 366 -137 111 -143 116 -339 308 -85 83 -149 142 -141 131z m530 -917
c158 -114 325 -225 395 -263 129 -69 394 -268 581 -437 180 -162 390 -396 408
-455 4 -11 14 -24 23 -27 14 -6 14 -4 1 16 -8 13 -42 82 -76 153 -67 140 -65
139 56 -15 36 -47 81 -103 99 -124 31 -37 42 -66 26 -66 -32 1 -187 33 -226
47 -43 16 -51 23 -89 93 -86 158 -140 205 -355 313 -156 79 -351 199 -454 281
-14 12 -43 35 -65 51 -146 113 -340 316 -475 496 -38 51 -69 94 -69 96 0 1 30
-20 68 -48 37 -27 105 -78 152 -111z m10 -213 c47 -39 132 -104 190 -145 58
-41 130 -97 160 -125 60 -55 188 -159 235 -192 55 -38 99 -60 170 -83 104 -34
138 -54 214 -126 57 -53 171 -200 171 -219 0 -9 -163 76 -245 128 -265 166
-391 259 -610 450 -150 131 -405 377 -431 416 -15 22 -14 22 22 -5 22 -16 77
-60 124 -99z m107 -167 c133 -123 188 -178 176 -178 -14 0 -253 218 -253 231
0 15 6 11 77 -53z"/>
<path d="M5530 4419 c0 -2 14 -40 30 -84 29 -74 104 -201 243 -410 60 -90 203
-275 213 -275 8 0 -3 16 -82 116 -39 50 -86 118 -104 150 -18 33 -69 120 -113
194 -44 74 -98 167 -120 205 -46 80 -67 112 -67 104z"/>
<path d="M6526 4142 c61 -54 311 -224 399 -272 90 -50 64 -30 -79 60 -70 44
-170 112 -220 150 -51 39 -97 70 -102 70 -4 0 -4 -4 2 -8z"/>
<path d="M7125 3762 c6 -5 21 -13 35 -17 17 -5 22 -4 15 3 -5 5 -21 13 -35 17
-17 5 -22 4 -15 -3z"/>
<path d="M7210 3723 c13 -10 62 -49 109 -87 46 -38 82 -65 80 -59 -6 14 -159
137 -189 152 l-25 12 25 -18z"/>
<path d="M7429 3537 c26 -28 31 -32 31 -19 0 4 -13 16 -28 26 l-27 19 24 -26z"/>
<path d="M7484 3491 c20 -22 26 -25 26 -13 0 4 -10 13 -22 21 -23 14 -23 14
-4 -8z"/>
<path d="M7611 3375 c52 -55 117 -128 144 -162 55 -72 70 -83 26 -20 -38 55
-142 169 -211 232 -30 27 -12 5 41 -50z"/>
<path d="M7820 3120 c6 -11 13 -20 16 -20 2 0 0 9 -6 20 -6 11 -13 20 -16 20
-2 0 0 -9 6 -20z"/>
<path d="M7917 2945 c27 -55 55 -111 61 -125 l12 -25 -6 25 c-7 30 -91 201
-106 215 -5 6 12 -35 39 -90z"/>
<path d="M2816 2792 c-3 -5 -20 -12 -37 -16 -17 -3 -51 -18 -75 -33 -59 -37
-67 -71 -59 -227 12 -222 36 -346 67 -346 9 0 8 21 -4 70 -2 8 2 0 10 -17 8
-18 21 -33 29 -33 7 0 25 -7 38 -16 20 -13 31 -14 53 -5 15 6 38 13 52 15 14
2 24 9 23 17 -25 176 -42 477 -29 534 3 17 3 35 -2 42 -10 16 -58 27 -66 15z"/>
<path d="M8006 2740 c3 -14 11 -32 16 -40 6 -10 7 -7 2 10 -3 14 -11 32 -16
40 -6 10 -7 7 -2 -10z"/>
<path d="M2530 2743 c-132 -25 -703 -190 -735 -213 -5 -4 -109 -40 -230 -79
-121 -40 -236 -83 -255 -95 -19 -12 -51 -28 -70 -36 -52 -20 -65 -32 -46 -42
10 -6 26 -3 45 7 34 17 51 19 51 6 0 -5 -13 -12 -30 -16 -16 -4 -32 -11 -35
-16 -4 -5 -14 -9 -24 -9 -16 0 -19 -14 -23 -145 -6 -143 0 -207 21 -228 15
-15 165 34 211 68 19 14 40 23 47 21 7 -3 43 8 80 25 100 44 100 44 208 84 55
21 162 62 237 91 76 30 143 54 151 54 10 0 16 -23 21 -92 14 -210 41 -404 90
-651 11 -59 11 -67 -1 -62 -8 3 -36 -2 -61 -10 -26 -8 -85 -26 -132 -40 -112
-34 -343 -116 -354 -126 -9 -8 48 8 123 35 24 9 46 16 50 16 16 -1 -30 -22
-89 -41 -55 -18 -117 -47 -270 -125 -18 -9 -26 -22 -28 -46 -5 -48 -22 -60
-22 -16 0 20 5 40 10 43 21 13 9 23 -14 12 -21 -10 -26 -23 -36 -88 -11 -69
-10 -85 9 -159 11 -46 19 -85 17 -87 -11 -11 -38 103 -43 179 -3 48 -10 85
-14 82 -23 -14 14 -211 52 -286 22 -41 23 -42 29 -18 l6 25 8 -22 c10 -30 26
-30 27 0 0 14 2 17 6 7 8 -23 34 -40 61 -40 14 0 68 21 121 46 53 26 114 55
136 65 22 10 75 34 118 54 43 20 118 52 165 70 48 18 143 58 212 88 80 34 146
56 181 60 66 6 139 40 146 68 3 10 8 17 12 15 3 -2 15 2 25 10 18 13 18 18 2
156 -9 79 -21 220 -26 313 -6 94 -17 217 -26 275 -8 58 -19 204 -25 325 -7
121 -14 276 -18 345 -3 69 -10 131 -14 138 -8 12 -13 13 -57 5z m-1318 -630
c3 -40 2 -73 -2 -73 -11 0 -20 55 -20 119 1 78 16 45 22 -46z m1435 -360 c-3
-10 -5 -2 -5 17 0 19 2 27 5 18 2 -10 2 -26 0 -35z m10 -115 c-2 -13 -4 -3 -4
22 0 25 2 35 4 23 2 -13 2 -33 0 -45z m-612 -298 c-11 -5 -27 -9 -35 -9 -9 0
-8 4 5 9 11 5 27 9 35 9 9 0 8 -4 -5 -9z m15 -13 c0 -8 -141 -58 -152 -55 -7
3 21 16 62 31 77 26 90 30 90 24z m-110 -17 c-8 -5 -22 -10 -30 -10 -13 0 -13
1 0 10 8 5 22 10 30 10 13 0 13 -1 0 -10z m704 -95 c5 -22 4 -26 -4 -15 -5 8
-10 24 -10 34 0 26 6 18 14 -19z m-904 0 c-14 -8 -32 -14 -40 -14 -8 0 -1 7
15 14 39 18 57 18 25 0z"/>
<path d="M8041 2625 c0 -5 6 -32 13 -60 8 -27 14 -41 14 -30 0 21 -25 107 -27
90z"/>
<path d="M8068 2429 c-2 -45 0 -83 5 -86 4 -2 7 34 7 81 0 47 -2 86 -4 86 -3
0 -6 -36 -8 -81z"/>
<path d="M6555 2331 c-305 -54 -341 -66 -311 -106 15 -21 20 -20 243 21 51 10
95 15 97 13 3 -3 0 -92 -7 -199 l-12 -194 -35 -8 c-19 -4 -67 -12 -107 -18
-88 -14 -110 -28 -94 -58 11 -20 17 -21 89 -16 42 3 124 16 182 29 58 12 112
23 120 23 23 1 125 27 139 36 9 6 11 34 6 109 -3 56 -2 161 3 232 5 80 5 135
-1 143 -14 18 -190 14 -312 -7z"/>
<path d="M6914 2298 c-4 -6 -9 -66 -12 -133 l-5 -122 44 -1 44 -1 -3 114 c-2
70 1 122 8 135 10 19 8 20 -29 20 -22 0 -43 -5 -47 -12z"/>
<path d="M7010 2188 c0 -126 6 -158 27 -158 8 0 11 5 8 10 -3 6 4 10 18 10 42
0 85 20 91 43 10 38 6 155 -6 182 -10 23 -16 25 -75 25 l-63 0 0 -112z"/>
<path d="M7530 2140 c8 -5 22 -9 30 -9 10 0 8 3 -5 9 -27 12 -43 12 -25 0z"/>
<path d="M7588 2123 c6 -2 18 -2 25 0 6 3 1 5 -13 5 -14 0 -19 -2 -12 -5z"/>
<path d="M2078 1714 c-74 -134 -161 -335 -156 -360 2 -9 17 15 33 54 17 40 33
72 38 72 4 0 7 7 7 15 0 8 34 82 76 164 42 83 74 155 72 162 -2 7 -34 -42 -70
-107z"/>
<path d="M3488 1803 c7 -3 16 -2 19 1 4 3 -2 6 -13 5 -11 0 -14 -3 -6 -6z"/>
<path d="M5080 1790 c-20 -6 -21 -8 -5 -8 11 0 29 3 40 8 25 11 -1 11 -35 0z"/>
<path d="M4993 1773 c-13 -2 -23 -8 -23 -13 0 -5 15 -4 33 2 52 18 47 22 -10
11z"/>
<path d="M3473 1743 c9 -2 23 -2 30 0 6 3 -1 5 -18 5 -16 0 -22 -2 -12 -5z"/>
<path d="M1977 854 c-10 -11 148 -196 266 -311 108 -105 237 -205 237 -183 0
6 -14 19 -30 29 -93 56 -292 253 -414 409 -54 68 -50 65 -59 56z"/>
<path d="M1840 785 c0 -16 46 -91 100 -165 80 -107 310 -343 411 -420 128 -97
306 -200 347 -200 19 0 33 2 31 4 -2 2 -76 43 -164 91 -203 112 -274 165 -410
306 -125 129 -207 229 -266 324 -38 60 -49 73 -49 60z"/>
<path d="M5080 512 c0 -7 10 -45 21 -85 17 -57 23 -108 26 -250 3 -112 9 -177
16 -177 15 0 1 331 -18 408 -15 62 -44 129 -45 104z"/>
<path d="M3081 84 c0 -11 3 -14 6 -6 3 7 2 16 -1 19 -3 4 -6 -2 -5 -13z"/>
<path d="M3071 44 c0 -11 3 -14 6 -6 3 7 2 16 -1 19 -3 4 -6 -2 -5 -13z"/>
</g>
</svg>
